<svg xmlns="http://www.w3.org/2000/svg" viewBox="0 0 242.44 100.78"><defs><style>.cls-1{fill:#f0ebf7;}</style></defs><g id="Capa_2" data-name="Capa 2"><g id="Capa_1-2" data-name="Capa 1"><path class="cls-1" d="M9.62,50.56c-.84,0-1.06,1.06-1.06,2.5V68.51h5c7.65,0,7.34-5.61,7.34-5.61h.76V75H20.9s.31-5.61-7.34-5.61h-5v28.1c0,1.44.3,2.58,1.06,2.58H23.86c6.66,0,8.4-6.82,8.4-6.82H33L32,100.7H0v-.38c1.89,0,3.1-.3,3.18-2.8V53c-.08-2.5-1.29-2.8-3.18-2.8V49.8H32L33,57.3h-.76s-1.74-6.74-8.4-6.74Z"/><path class="cls-1" d="M65.59,62.3c0-1.21-3.41-11.82-13.18-11.82-3.71,0-11.29,1.67-11.29,9.7,0,7.35,15,11.43,16.74,12C67.26,75.48,71,79.42,71,87c0,8.64-8.56,13.63-19.54,13.63s-15.15-6.21-15.15-6.21v2.73h-.9v-11h.9c0,4.85,7,13.78,15.23,13.78,9.09,0,13.33-4.31,13.33-12.35,0-9.84-12.58-11.58-18.64-14.54-8-3.86-10.52-7.49-10.52-12.34,0-8.86,9.31-11,16.28-11,7.65,0,11.82,2.8,13.56,4.39V51.39h.91V62.3Z"/><path class="cls-1" d="M82.86,50.56c-.84,0-1.06,1.06-1.06,2.5V68.51h5c7.65,0,7.35-5.61,7.35-5.61h.76V75h-.76s.3-5.61-7.35-5.61h-5v28.1c0,1.44.3,2.58,1.06,2.58H97.1c6.66,0,8.4-6.82,8.4-6.82h.76l-1.06,7.5h-32v-.38c1.89,0,3.1-.3,3.18-2.8V53c-.08-2.5-1.29-2.8-3.18-2.8V49.8h32l1.06,7.5h-.76s-1.74-6.74-8.4-6.74Z"/><path class="cls-1" d="M120.88,49.8l.22.38c-2,0-3,.38-1.81,2.88l18.55,37V53c-.07-2.5-1.29-2.8-3.25-2.8V49.8h7.87v.38c-2,0-3.18.38-3.25,2.88V100.7h-1.37L113.91,53a7,7,0,0,0-.46-.83,4,4,0,0,0-.07.91V97.44c0,2.58,1.21,2.88,3.18,2.88v.38h-7.88v-.38c2,0,3.18-.3,3.26-2.8V53c-.08-2.5-1.29-2.8-3.26-2.8V49.8Z"/><path class="cls-1" d="M180.18,58.06c-3-4.62-6.21-7.5-13.1-7.5-11.14,0-17,11.06-17,24.69s7,24.69,18.17,24.69c9.7,0,12.8-4.92,14.17-7.57l.3.6c-2.27,3.49-4.77,7.81-14.47,7.81-14.08,0-23.55-11.44-23.55-25.53S153,49.8,167.08,49.8c8.33,0,12.34,2.65,16.28,7,2,2,3,1.59,3.41,1.29l.23.3-7.73,4.77-.22-.38A3.77,3.77,0,0,0,180.18,58.06Z"/><path class="cls-1" d="M192.53,53c-.08-2.5-1.29-2.8-3.26-2.8V49.8h11.81v.38c-2,0-3.18.38-3.25,2.88V97.44c.07,2.58,1.29,2.88,3.25,2.88v.38H189.27v-.38c2,0,3.18-.3,3.26-2.8Z"/><path class="cls-1" d="M214,78.51l-5.15,18.93c-.68,2.58.45,2.88,2.42,2.88l-.07.38h-7.88l.08-.38c2,0,3.25-.3,4-2.8l12-44.54c.61-2.5-.53-2.8-2.5-2.8l-.07-.38h6.06c1.74,0,2.8.83,3.41,3.18l12,44.54c.75,2.5,2,2.8,3.94,2.8l.15.38H230.62l-.07-.38c2,0,3.1-.3,2.42-2.88,0,0-2.42-9-5.15-18.93Zm6.89-25.68L214.34,77h13.1S220.93,52.91,220.85,52.83Z"/><path class="cls-1" d="M31.45,23.34l-4.19,15.4c-.56,2.1.37,2.34,2,2.34l-.06.31H22.76l.06-.31c1.6,0,2.65-.24,3.27-2.27L35.88,2.59c.49-2-.43-2.28-2-2.28L33.79,0h4.92c1.42,0,2.28.68,2.78,2.59l9.79,36.22c.61,2,1.66,2.27,3.2,2.27l.12.31H45l-.07-.31c1.61,0,2.53-.24,2-2.34,0,0-2-7.33-4.19-15.4Zm5.6-20.88-5.3,19.65H42.41S37.11,2.53,37.05,2.46Z"/><path class="cls-1" d="M97.54,0V.31c-1.61,0-2.59.31-2.65,2.34V38.74c.06,2.1,1,2.34,2.65,2.34v.31H87.93v-.31c1.6,0,2.58-.24,2.64-2.27V2.59A1.78,1.78,0,0,0,90.51,2a2.25,2.25,0,0,1-.24.56L77.58,41.39a3.47,3.47,0,0,1-3.39-2.58L62.3,2.59a6.5,6.5,0,0,0-.3-.68,2.59,2.59,0,0,0-.06.74V38.74c0,2.1,1,2.34,2.58,2.34v.31h-6.4v-.31c1.6,0,2.58-.24,2.65-2.27V2.59C60.7.55,59.72.31,58.12.31V0H68.4l.12.31c-1.6,0-2.52.31-1.84,2.34l11.15,34,11.08-34c.68-2-.24-2.34-1.84-2.34L87.19,0Z"/><path class="cls-1" d="M118.48,0c11.45,0,18.72,9.3,18.72,20.7s-7.27,20.75-18.72,20.75-18.17-9.3-18.17-20.75S107.08,0,118.48,0Zm0,.62c-9,0-13.8,9-13.8,20.08s4.8,20.08,13.8,20.08,14.35-9,14.35-20.08S127.53.62,118.48.62Z"/><path class="cls-1" d="M194,0V.31c-1.6,0-2.59.31-2.65,2.34V38.74c.06,2.1,1,2.34,2.65,2.34v.31h-9.6v-.31c1.6,0,2.58-.24,2.64-2.27V2.59A1.78,1.78,0,0,0,187,2a2,2,0,0,1-.25.56L174,41.39a3.47,3.47,0,0,1-3.39-2.58L158.76,2.59a4.87,4.87,0,0,0-.31-.68,2.59,2.59,0,0,0-.06.74V38.74c0,2.1,1.05,2.34,2.59,2.34v.31h-6.41v-.31c1.6,0,2.59-.24,2.65-2.27V2.59c-.06-2-1.05-2.28-2.65-2.28V0h10.29l.12.31c-1.6,0-2.52.31-1.85,2.34l11.15,34,11.09-34c.68-2-.25-2.34-1.85-2.34l.12-.31Z"/><path class="cls-1" d="M200.15,2.59c-.06-2-1.05-2.28-2.65-2.28V0h9.61V.31c-1.6,0-2.58.31-2.64,2.34V38.74c.06,2.1,1,2.34,2.64,2.34v.31H197.5v-.31c1.6,0,2.59-.24,2.65-2.27Z"/></g></g></svg>