<svg xmlns="http://www.w3.org/2000/svg" viewBox="0 0 271.73 271.57"><defs><style>.cls-1{isolation:isolate;}.cls-2{fill:#fff;}.cls-2,.cls-5{fill-rule:evenodd;}.cls-3{fill:#1e1e1e;}.cls-4,.cls-5{fill:#bb9ecc;}.cls-4{mix-blend-mode:multiply;}.cls-10,.cls-11,.cls-12,.cls-13,.cls-14,.cls-15,.cls-16,.cls-17,.cls-18,.cls-6,.cls-7,.cls-8,.cls-9{fill:none;stroke:#6c2c68;stroke-miterlimit:10;stroke-width:1.02px;}.cls-7{stroke-dasharray:7.06 7.06;}.cls-8{stroke-dasharray:7.05 7.05;}.cls-9{stroke-dasharray:7.07 7.07;}.cls-10{stroke-dasharray:7.07 7.07;}.cls-11{stroke-dasharray:7.03 7.03;}.cls-12{stroke-dasharray:7.04 7.04;}.cls-13{stroke-dasharray:7.07 7.07;}.cls-14{stroke-dasharray:7.08 7.08;}.cls-15{stroke-dasharray:7.08 7.08;}.cls-16{stroke-dasharray:7.07 7.07;}.cls-17{stroke-dasharray:7.06 7.06;}.cls-18{stroke-dasharray:7.07 7.07;}</style></defs><g class="cls-1"><g id="Capa_2" data-name="Capa 2"><g id="Capa_1-2" data-name="Capa 1"><path class="cls-2" d="M165.58,246.66c-5.19,18-16.66,27-35.67,24.49-8.79-1.17-21-9.43-23.4-25.11-11.18,11.72-24.3,15.49-38.44,7.41s-17.44-21.27-12.93-37c-9.12,2.92-17.7,2.75-25.92-1.81a27,27,0,0,1-12.47-13.86c-5.34-13.73-1.82-25.5,9.39-35.65-7.95-1.12-14.49-4.38-19.35-10.28A29.32,29.32,0,0,1,0,134.25c.64-13.61,9.07-22.87,25.55-27.81C14.23,95.23,10.06,82.23,18.37,68S39.85,50.61,55.66,55.38a29.14,29.14,0,0,1-.34-22.75,26.09,26.09,0,0,1,11.88-14c14.69-7.92,27.62-5,39.3,6.93,1.39-7.78,4.81-14.16,10.91-19A30,30,0,0,1,138.35.05c12.67.68,22.13,9.5,27,25.31,12-12,25.73-15.42,40.34-5.73,12.7,8.42,15.18,21.07,10.87,35.57,15.57-4.4,28.31-1,37,12.78A27.06,27.06,0,0,1,257,88.54c-1.53,7.17-5.35,13-11.37,17.94,17.07,3.5,26.23,13.68,26.1,30.51-.11,14.42-9.13,23.65-25.64,28.3,12.53,12.05,15.79,26,6,40.64-8.31,12.52-21,14.73-35.49,10.61,4.43,15.41,1.47,28.58-12.65,36.76S177,257.82,165.58,246.66Z"/><path class="cls-3" d="M57.8,141.27c-.62,0-.78.78-.78,1.83v11.35h3.67c5.61,0,5.39-4.12,5.39-4.12h.56v8.84h-.56s.22-4.11-5.39-4.11H57v20.63c0,1.06.22,1.9.78,1.9H68.25c4.89,0,6.18-5,6.18-5H75l-.78,5.51H50.73v-.28c1.39,0,2.28-.22,2.34-2.06v-32.7c-.06-1.84-1-2.06-2.34-2.06v-.28H74.2l.78,5.51h-.55s-1.29-4.95-6.18-4.95Z"/><path class="cls-3" d="M98.89,149.89c0-.89-2.5-8.68-9.67-8.68-2.73,0-8.29,1.23-8.29,7.12,0,5.4,11,8.4,12.29,8.84,6.9,2.4,9.68,5.29,9.68,10.85,0,6.34-6.28,10-14.35,10s-11.13-4.56-11.13-4.56v2h-.66v-8.06h.66c0,3.56,5.18,10.12,11.18,10.12,6.68,0,9.79-3.17,9.79-9.07,0-7.22-9.23-8.51-13.68-10.67C78.82,155,77,152.28,77,148.72c0-6.51,6.84-8.07,12-8.07,5.62,0,8.67,2.07,10,3.23v-2h.67v8Z"/><path class="cls-3" d="M111.58,141.27c-.62,0-.78.78-.78,1.83v11.35h3.67c5.61,0,5.39-4.12,5.39-4.12h.56v8.84h-.56s.22-4.11-5.39-4.11H110.8v20.63c0,1.06.22,1.9.78,1.9H122c4.9,0,6.17-5,6.17-5h.56l-.78,5.51H104.51v-.28c1.39,0,2.28-.22,2.34-2.06v-32.7c-.06-1.84-.95-2.06-2.34-2.06v-.28H128l.78,5.51h-.56s-1.27-4.95-6.17-4.95Z"/><path class="cls-3" d="M139.49,140.71l.17.28c-1.44,0-2.23.28-1.34,2.11L152,170.3V143.05c-.06-1.84-.94-2.06-2.39-2.06v-.28h5.78V141c-1.44,0-2.33.28-2.39,2.11v35h-1l-17.57-35a6.39,6.39,0,0,0-.34-.61,2.94,2.94,0,0,0,0,.66v32.59c0,1.9.89,2.12,2.33,2.12v.28h-5.78v-.28c1.44,0,2.34-.22,2.39-2.06v-32.7c-.05-1.84-1-2.06-2.39-2.06v-.28Z"/><path class="cls-3" d="M183,146.77c-2.23-3.39-4.56-5.5-9.62-5.5-8.18,0-12.51,8.12-12.51,18.13s5.17,18.13,13.34,18.13c7.12,0,9.4-3.61,10.4-5.56l.22.44c-1.66,2.56-3.5,5.73-10.62,5.73-10.34,0-17.3-8.4-17.3-18.74s6.12-18.69,16.47-18.69c6.12,0,9.06,1.95,12,5.12,1.44,1.5,2.16,1.17,2.5.94l.17.23-5.68,3.5-.16-.28A2.79,2.79,0,0,0,183,146.77Z"/><path class="cls-3" d="M192.1,143.05c0-1.84-.94-2.06-2.39-2.06v-.28h8.68V141c-1.45,0-2.34.28-2.39,2.11v32.59c.05,1.9.94,2.12,2.39,2.12v.28h-8.68v-.28c1.45,0,2.34-.22,2.39-2.06Z"/><path class="cls-3" d="M207.84,161.79l-3.78,13.9c-.5,1.9.33,2.12,1.78,2.12l-.05.28H200l.06-.28c1.45,0,2.39-.22,2.95-2.06l8.84-32.7c.44-1.84-.39-2.06-1.84-2.06l0-.28h4.45c1.28,0,2.05.61,2.5,2.34l8.84,32.7c.56,1.84,1.5,2.06,2.89,2.06l.11.28h-8.67l-.06-.28c1.45,0,2.28-.22,1.78-2.12,0,0-1.78-6.62-3.78-13.9Zm5.06-18.85-4.78,17.74h9.62S213,143,212.9,142.94Z"/><path class="cls-3" d="M80.83,82.19l.09-.06a.2.2,0,0,1,.11,0l.84,0a2.49,2.49,0,0,1-.16,1.21,3.28,3.28,0,0,1-.81,1.12,3.18,3.18,0,0,1-1.1.71,2.61,2.61,0,0,1-1.16.18,3,3,0,0,1-1.15-.31,4,4,0,0,1-1-.78,3.46,3.46,0,0,1-.73-1.1A2.9,2.9,0,0,1,75.48,82a3,3,0,0,1,.25-1.17,3.59,3.59,0,0,1,.76-1.06,3.28,3.28,0,0,1,.53-.41,2.78,2.78,0,0,1,.54-.28,2.29,2.29,0,0,1,.55-.16,3.23,3.23,0,0,1,.53,0l.1.82a.92.92,0,0,1,0,.16.26.26,0,0,1-.09.16.35.35,0,0,1-.13.08l-.17,0-.2,0a1.19,1.19,0,0,0-.23.07l-.28.15a2.12,2.12,0,0,0-.31.25,1.77,1.77,0,0,0-.39.56,1.54,1.54,0,0,0-.1.64,1.65,1.65,0,0,0,.2.69,2.6,2.6,0,0,0,.5.7,2.71,2.71,0,0,0,.69.53,1.93,1.93,0,0,0,.7.21,1.62,1.62,0,0,0,.66-.08,1.78,1.78,0,0,0,.56-.36l.25-.26c.06-.09.12-.17.17-.26a1,1,0,0,0,.11-.27,1.07,1.07,0,0,0,0-.32l0-.13A.44.44,0,0,1,80.83,82.19Z"/><path class="cls-3" d="M86,78.48l1.84-1.43.72.92-3,2.33-3.87-5,1.16-.9Z"/><path class="cls-3" d="M93.39,73.37a1.42,1.42,0,0,0,.4-.36,1.11,1.11,0,0,0,.19-.45,1.22,1.22,0,0,0,0-.5,2.36,2.36,0,0,0-.24-.55l-2-3.19L93,67.56,95,70.74a2.77,2.77,0,0,1,.4,1,2.35,2.35,0,0,1,0,1,2.69,2.69,0,0,1-.44.92A3.42,3.42,0,0,1,93,74.84a2.45,2.45,0,0,1-1,0,2.37,2.37,0,0,1-.89-.43,3,3,0,0,1-.72-.81l-2-3.19,1.25-.76,2,3.18a2,2,0,0,0,.38.46,1.31,1.31,0,0,0,.44.25,1.12,1.12,0,0,0,.48,0A1.39,1.39,0,0,0,93.39,73.37Z"/><path class="cls-3" d="M100.23,70.87l-2.64-5.73,2.11-1a4.42,4.42,0,0,1,1.06-.36,2.25,2.25,0,0,1,.82,0,1.31,1.31,0,0,1,.61.31,1.85,1.85,0,0,1,.42.59,1.43,1.43,0,0,1,.11.39,1.19,1.19,0,0,1,0,.42,1.17,1.17,0,0,1-.17.43,1.79,1.79,0,0,1-.34.42,1.76,1.76,0,0,1,1,.06,1.27,1.27,0,0,1,.64.67,1.82,1.82,0,0,1,.17.75,1.76,1.76,0,0,1-.16.74,2.1,2.1,0,0,1-.51.67,3.22,3.22,0,0,1-.85.56Zm-.2-3.93.69-.32a2.36,2.36,0,0,0,.39-.22,1.09,1.09,0,0,0,.24-.24.67.67,0,0,0,.1-.31,1,1,0,0,0-.1-.37,1.18,1.18,0,0,0-.21-.32.57.57,0,0,0-.26-.15.7.7,0,0,0-.32,0,2.14,2.14,0,0,0-.4.14l-.78.36Zm.41.89.65,1.42.94-.42a1.72,1.72,0,0,0,.4-.27.77.77,0,0,0,.18-.29.61.61,0,0,0,0-.3.75.75,0,0,0-.09-.29,1,1,0,0,0-.17-.27.45.45,0,0,0-.24-.14.68.68,0,0,0-.32,0,1.48,1.48,0,0,0-.44.14Z"/><path class="cls-3" d="M118.49,61.21a3.3,3.3,0,0,1,.07,1.28,3,3,0,0,1-.4,1.13,3.12,3.12,0,0,1-.85.89,3.5,3.5,0,0,1-1.24.55l-2.38.59-1.52-6.12,2.38-.59a3.54,3.54,0,0,1,1.36-.09,3.18,3.18,0,0,1,1.16.39,2.82,2.82,0,0,1,.88.81A3.35,3.35,0,0,1,118.49,61.21Zm-1.46.36a2.67,2.67,0,0,0-.32-.79,1.79,1.79,0,0,0-.49-.53,1.45,1.45,0,0,0-.64-.26,1.8,1.8,0,0,0-.76,0l-.95.24,1,3.94,1-.24a1.83,1.83,0,0,0,.69-.32,1.38,1.38,0,0,0,.44-.52,2,2,0,0,0,.19-.71A2.9,2.9,0,0,0,117,61.57Z"/><path class="cls-3" d="M126.56,56.79l.15,1.12-2.57.33.19,1.46,2-.25.14,1.07-2,.26.19,1.49,2.57-.33.14,1.11-4,.52-.82-6.25Z"/><path class="cls-3" d="M141.24,56.52l-.05,1.13-2.58-.11L138.55,59l2,.09,0,1.07-2-.07-.06,1.5,2.59.1L141,62.83l-4-.17.25-6.3Z"/><path class="cls-3" d="M149.35,58.76a.48.48,0,0,1-.16.13.22.22,0,0,1-.18,0,.32.32,0,0,1-.21-.09l-.23-.17a1.82,1.82,0,0,0-.31-.19,1.31,1.31,0,0,0-.41-.12,1,1,0,0,0-.63.08.59.59,0,0,0-.27.44.44.44,0,0,0,.07.34,1,1,0,0,0,.29.25,2.73,2.73,0,0,0,.42.23l.49.24q.24.13.48.3a1.6,1.6,0,0,1,.4.38,1.34,1.34,0,0,1,.24.51,1.56,1.56,0,0,1,0,.69,2.07,2.07,0,0,1-.27.78,1.8,1.8,0,0,1-.53.6,2,2,0,0,1-.76.34,2.66,2.66,0,0,1-1,0,4.43,4.43,0,0,1-.58-.14,3.57,3.57,0,0,1-.56-.26,3.49,3.49,0,0,1-.49-.33,2.09,2.09,0,0,1-.39-.4l.53-.61a.42.42,0,0,1,.15-.11.4.4,0,0,1,.19,0,.48.48,0,0,1,.25.12l.27.22a2.65,2.65,0,0,0,.35.24,1.57,1.57,0,0,0,.49.15,1,1,0,0,0,.64-.08.7.7,0,0,0,.3-.52.53.53,0,0,0-.07-.38,1,1,0,0,0-.28-.27,2.73,2.73,0,0,0-.42-.22l-.49-.23a2.87,2.87,0,0,1-.48-.28,1.6,1.6,0,0,1-.4-.38,1.53,1.53,0,0,1-.24-.55,2,2,0,0,1,0-.75,1.94,1.94,0,0,1,.24-.66,1.87,1.87,0,0,1,.51-.54,2.11,2.11,0,0,1,.73-.32,2.26,2.26,0,0,1,.94,0,3.37,3.37,0,0,1,.55.12,3.61,3.61,0,0,1,.49.21,2.62,2.62,0,0,1,.43.27,3.58,3.58,0,0,1,.34.33Z"/><path class="cls-3" d="M159.11,59.61l-.29,1.13-1.72-.44-1.26,5-1.42-.36,1.26-5L154,59.5l.29-1.12Z"/><path class="cls-3" d="M167.41,62.46l-.39,1-2.43-.9L164.08,64l1.85.69-.37,1L163.7,65l-.52,1.41,2.43.9-.4,1.06L161.41,67l2.19-5.91Zm.64-1.65-1.74.67-.12,0a.34.34,0,0,1-.1,0l-.11,0-.13,0-.91-.34,1.17-.81a.33.33,0,0,1,.13-.07.27.27,0,0,1,.13,0l.13,0,.16.06Z"/><path class="cls-3" d="M176,66.43l-.52,1-1.59-.79-2.29,4.6-1.31-.65L172.53,66l-1.59-.79.52-1Z"/><path class="cls-3" d="M177.9,74.9l-1.25-.78L180,68.76l1.26.77Z"/><path class="cls-3" d="M186.05,78.66l.07.08a.34.34,0,0,1,0,.12l.09.83a2.48,2.48,0,0,1-1.21,0,3.44,3.44,0,0,1-1.24-.62,3.33,3.33,0,0,1-.88-1,2.94,2.94,0,0,1-.36-1.12,3.05,3.05,0,0,1,.13-1.19,4.09,4.09,0,0,1,.6-1.15,3.52,3.52,0,0,1,1-.89,2.9,2.9,0,0,1,1.13-.43,3.06,3.06,0,0,1,1.2.07,3.42,3.42,0,0,1,1.16.58,3.69,3.69,0,0,1,.5.46,3.24,3.24,0,0,1,.36.49,2.93,2.93,0,0,1,.24.51A2.59,2.59,0,0,1,189,76l-.79.23-.16,0a.37.37,0,0,1-.18-.07.27.27,0,0,1-.09-.12c0-.05-.05-.1-.07-.16l-.07-.18a.9.9,0,0,0-.11-.22,1.84,1.84,0,0,0-.19-.25A1.92,1.92,0,0,0,187,75a1.59,1.59,0,0,0-.62-.29,1.43,1.43,0,0,0-.65,0,1.7,1.7,0,0,0-.65.29,3.27,3.27,0,0,0-.61.62,2.88,2.88,0,0,0-.42.76,2.09,2.09,0,0,0-.09.72,1.5,1.5,0,0,0,.19.63,1.38,1.38,0,0,0,.43.5,2.43,2.43,0,0,0,.31.21,1.43,1.43,0,0,0,.28.13,1,1,0,0,0,.29.07,1.7,1.7,0,0,0,.32,0h.13Z"/><path class="cls-3" d="M192.77,86.93l-.82-.79a.48.48,0,0,1-.16-.28.45.45,0,0,1,0-.28l.49-1.06-1.74-1.65-1,.53a.46.46,0,0,1-.27,0,.47.47,0,0,1-.29-.14l-.82-.79,6.12-2.87,1.08,1Zm-1.27-4.55,1.25,1.19.77-1.65c0-.11.1-.23.17-.37l.23-.45-.44.25-.37.19Z"/><path class="cls-3" d="M71.41,121.36l-3.2,11.75c-.42,1.6.28,1.79,1.51,1.79l0,.23H64.78l0-.23c1.23,0,2-.19,2.5-1.74l7.47-27.64c.38-1.55-.33-1.74-1.55-1.74l0-.24H77c1.09,0,1.74.52,2.12,2l7.47,27.64A2.1,2.1,0,0,0,89,134.9l.09.23H81.75l0-.23c1.22,0,1.93-.19,1.51-1.79,0,0-1.51-5.59-3.2-11.75Zm4.27-15.94-4,15h8.14S75.73,105.47,75.68,105.42Z"/><path class="cls-3" d="M121.85,103.54v.24c-1.22,0-2,.23-2,1.78v27.55c0,1.6.8,1.79,2,1.79v.23h-7.33v-.23c1.22,0,2-.19,2-1.74V105.52a1.24,1.24,0,0,0-.05-.43,1.45,1.45,0,0,1-.19.43l-9.68,29.61a2.64,2.64,0,0,1-2.59-2L95,105.52a5.31,5.31,0,0,0-.23-.52,1.81,1.81,0,0,0,0,.56v27.55c0,1.6.8,1.79,2,1.79v.23H91.76v-.23c1.22,0,2-.19,2-1.74V105.52c0-1.55-.8-1.74-2-1.74v-.24h7.85l.1.24c-1.23,0-1.93.23-1.41,1.78l8.5,25.95,8.47-25.95c.51-1.55-.19-1.78-1.41-1.78l.09-.24Z"/><path class="cls-3" d="M137.83,103.54c8.75,0,14.29,7.1,14.29,15.8s-5.54,15.84-14.29,15.84S124,128.08,124,119.34,129.14,103.54,137.83,103.54Zm0,.47c-6.86,0-10.53,6.86-10.53,15.33s3.67,15.32,10.53,15.32,11-6.86,11-15.32S144.75,104,137.83,104Z"/><path class="cls-3" d="M195.47,103.54v.24c-1.22,0-2,.23-2,1.78v27.55c0,1.6.8,1.79,2,1.79v.23h-7.33v-.23c1.22,0,2-.19,2-1.74V105.52a1.24,1.24,0,0,0,0-.43,2.27,2.27,0,0,1-.19.43l-9.68,29.61a2.65,2.65,0,0,1-2.59-2l-9.07-27.64a5.2,5.2,0,0,0-.24-.52,1.81,1.81,0,0,0-.05.56v27.55c0,1.6.81,1.79,2,1.79v.23h-4.89v-.23c1.22,0,2-.19,2-1.74V105.52c0-1.55-.81-1.74-2-1.74v-.24h7.85l.1.24c-1.22,0-1.93.23-1.41,1.78l8.51,25.95,8.46-25.95c.51-1.55-.19-1.78-1.41-1.78l.09-.24Z"/><path class="cls-3" d="M200.17,105.52c0-1.55-.8-1.74-2-1.74v-.24h7.33v.24c-1.22,0-2,.23-2,1.78v27.55c0,1.6.8,1.79,2,1.79v.23h-7.33v-.23c1.22,0,2-.19,2-1.74Z"/><path class="cls-4" d="M135,203.07c-2.79,4.66-2.55,9.41.24,11.08s7.1-.36,9.89-5,2.78-9.8,0-11.47S137.79,198.41,135,203.07Z"/><path class="cls-4" d="M139.87,203c2.79,4.66,2.55,9.41-.25,11.08s-7.1-.36-9.88-5-2.79-9.8,0-11.47S137.08,198.36,139.87,203Z"/><path class="cls-5" d="M165.58,246.66c-5.19,18-16.66,27-35.67,24.49-8.79-1.17-21-9.43-23.4-25.11-11.18,11.72-24.3,15.49-38.44,7.41s-17.44-21.27-12.93-37c-9.12,2.92-17.7,2.75-25.92-1.81a27,27,0,0,1-12.47-13.86c-5.34-13.73-1.82-25.5,9.39-35.65-7.95-1.12-14.49-4.38-19.35-10.28A29.32,29.32,0,0,1,0,134.25c.64-13.61,9.07-22.87,25.55-27.81C14.23,95.23,10.06,82.23,18.37,68S39.85,50.61,55.66,55.38a29.14,29.14,0,0,1-.34-22.75,26.09,26.09,0,0,1,11.88-14c14.69-7.92,27.62-5,39.3,6.93,1.39-7.78,4.81-14.16,10.91-19A30,30,0,0,1,138.35.05c12.67.68,22.13,9.5,27,25.31,12-12,25.73-15.42,40.34-5.73,12.7,8.42,15.18,21.07,10.87,35.57,15.57-4.4,28.31-1,37,12.78A27.06,27.06,0,0,1,257,88.54c-1.53,7.17-5.35,13-11.37,17.94,17.07,3.5,26.23,13.68,26.1,30.51-.11,14.42-9.13,23.65-25.64,28.3,12.53,12.05,15.79,26,6,40.64-8.31,12.52-21,14.73-35.49,10.61,4.43,15.41,1.47,28.58-12.65,36.76S177,257.82,165.58,246.66ZM35.85,109.15C22,112,13.2,120.09,12.43,134.16c-.86,15.82,8.14,25,23.36,28.55-9.65,9.11-13.87,19.71-8.28,32,7,15.36,19.58,19,35.19,14.52-3.63,16-.66,26.52,10.38,33.06,13.43,8,25.51,4.84,36.34-6.61a25.79,25.79,0,0,0,8.29,16.72c4.82,4.46,10.59,7.19,17.17,7.1,15.56-.19,24.48-8.62,27.82-23.67,9.67,10.68,21.19,14.26,34,7.56,14-7.31,16.61-19.76,12.47-34.4,12.61,4.32,23.85,2.26,31.69-8.31,10.07-13.58,6.93-26.56-4.74-38.06,12.88-2.8,21.53-10,23-23,1.91-16.86-7.12-26.52-23-30.6,10.9-12,13.57-22.38,7.62-33.41-7.56-14-19.7-17.4-34.66-13,4.15-13.59,1.87-25.45-10.36-33-13.28-8.24-25.61-5-36,6.35-4.36-14.7-11.48-22.32-23.07-23.36-17-1.55-26.7,7.34-30.6,23.5-9.15-10.27-20.77-13.82-31.67-8.8C62,34.31,58.2,46.81,62.56,62.61c-13.93-4.16-25.8-1.57-33.34,11C21.31,86.86,24.93,98.83,35.85,109.15Z"/><path class="cls-6" d="M41.33,112.52c1.09-.32,2.23-.6,3.4-.84-.87-.82-1.69-1.66-2.45-2.5"/><path class="cls-7" d="M38.08,103.51c-4.25-7.31-4.51-15.34.65-24C44.28,70.27,52.42,67,62,68.1"/><path class="cls-6" d="M65.51,68.68c1.12.24,2.25.53,3.4.87-.32-1.16-.59-2.29-.81-3.41"/><path class="cls-8" d="M67.39,59.13C67.45,49.75,72,42.29,82.3,37.54c7.92-3.65,16.25-2.3,23.52,3.18"/><path class="cls-6" d="M108.52,43c.83.78,1.65,1.62,2.45,2.52.28-1.17.6-2.3.94-3.38"/><path class="cls-9" d="M114.71,35.64c4.69-8.26,12.48-12.46,24-11.42,8.59.78,14.47,5.54,18.48,14.53"/><path class="cls-6" d="M158.47,42c.38,1.06.74,2.17,1.09,3.34.81-.89,1.64-1.72,2.48-2.49"/><path class="cls-10" d="M167.68,38.66c7.51-4.38,15.78-4.45,24.51,1,9,5.56,12,13.65,10.88,23"/><path class="cls-6" d="M202.47,66.16q-.37,1.68-.9,3.39c1.16-.34,2.29-.63,3.4-.86"/><path class="cls-11" d="M212,67.91c8.8,0,16,4.12,21,13.39,4.46,8.28,3.57,16.17-2.48,24.79"/><path class="cls-6" d="M228.35,108.89c-.71.87-1.47,1.76-2.29,2.65,1.16.3,2.29.64,3.37,1"/><path class="cls-12" d="M235.84,115.41c8.14,4.75,12.32,12.49,11,23.84-1.06,9.4-6.21,15.43-14.13,18.78"/><path class="cls-6" d="M229.43,159.23c-1.09.33-2.22.63-3.4.88.86.84,1.66,1.69,2.41,2.55"/><path class="cls-13" d="M232.58,168.39c4.7,8.21,4.53,17.05-2.25,26.18-5.65,7.61-13.24,10.35-21.86,9.18"/><path class="cls-6" d="M205,203.09c-1.1-.27-2.23-.61-3.36-1,.32,1.16.6,2.29.83,3.41"/><path class="cls-14" d="M203.25,212.53c0,8.67-3.74,15.92-12.9,20.71-9.39,4.92-18,3.72-25.61-2.05"/><path class="cls-6" d="M162,228.9c-.83-.78-1.65-1.62-2.45-2.5q-.39,1.75-.9,3.39"/><path class="cls-15" d="M155.89,236.29c-4.26,7.38-11.31,11.41-21.5,11.54-6,.07-11.18-2.4-15.54-6.43a23.14,23.14,0,0,1-5.83-8.33"/><path class="cls-6" d="M111.94,229.71a26.54,26.54,0,0,1-.6-3.46c-.83.88-1.67,1.7-2.51,2.46"/><path class="cls-16" d="M103.17,232.94c-7.61,4.48-15.85,4.57-24.73-.7-8.3-4.91-11.56-12.33-10.55-23"/><path class="cls-6" d="M68.35,205.76q.29-1.68.69-3.45c-1.16.33-2.29.61-3.41.84"/><path class="cls-17" d="M58.62,203.92c-9.3,0-16.77-4.46-21.44-14.75-4-8.87-2.43-16.75,2.79-23.76"/><path class="cls-6" d="M42.22,162.69c.77-.85,1.59-1.69,2.46-2.51-1.17-.27-2.3-.58-3.38-.93"/><path class="cls-18" d="M34.82,156.44C27.15,152,23,144.78,23.53,134.33c.56-10.28,5.84-17.06,14.47-20.63"/></g></g></g></svg>