<svg xmlns="http://www.w3.org/2000/svg" viewBox="0 0 242.44 165.85"><defs><style>.cls-1{fill:#1e1e1e;}</style></defs><g id="Capa_2" data-name="Capa 2"><g id="Capa_1-2" data-name="Capa 1"><path class="cls-1" d="M9.62,115.63c-.84,0-1.06,1.06-1.06,2.5v15.45h5c7.65,0,7.34-5.6,7.34-5.6h.76v12H20.9s.31-5.6-7.34-5.6h-5v28.1c0,1.44.3,2.57,1.06,2.57H23.86c6.66,0,8.4-6.82,8.4-6.82H33L32,165.77H0v-.38c1.89,0,3.1-.3,3.18-2.8V118.06c-.08-2.5-1.29-2.81-3.18-2.81v-.37H32L33,122.37h-.76s-1.74-6.74-8.4-6.74Z"/><path class="cls-1" d="M65.59,127.37c0-1.21-3.41-11.81-13.18-11.81-3.71,0-11.29,1.66-11.29,9.69,0,7.35,15,11.44,16.74,12,9.4,3.26,13.18,7.2,13.18,14.78,0,8.63-8.56,13.63-19.54,13.63s-15.15-6.21-15.15-6.21v2.72h-.9v-11h.9c0,4.85,7,13.79,15.23,13.79,9.09,0,13.33-4.32,13.33-12.35,0-9.85-12.58-11.59-18.64-14.55-8-3.86-10.52-7.49-10.52-12.34,0-8.86,9.31-11,16.28-11,7.65,0,11.82,2.8,13.56,4.39v-2.73h.91v10.91Z"/><path class="cls-1" d="M82.86,115.63c-.84,0-1.06,1.06-1.06,2.5v15.45h5c7.65,0,7.35-5.6,7.35-5.6h.76v12h-.76s.3-5.6-7.35-5.6h-5v28.1c0,1.44.3,2.57,1.06,2.57H97.1c6.66,0,8.4-6.82,8.4-6.82h.76l-1.06,7.5h-32v-.38c1.89,0,3.1-.3,3.18-2.8V118.06c-.08-2.5-1.29-2.81-3.18-2.81v-.37h32l1.06,7.49h-.76s-1.74-6.74-8.4-6.74Z"/><path class="cls-1" d="M120.88,114.88l.22.37c-2,0-3,.38-1.81,2.88l18.55,37V118.06c-.07-2.5-1.29-2.81-3.25-2.81v-.37h7.87v.37c-2,0-3.18.38-3.25,2.88v47.64h-1.37l-23.93-47.71a6.47,6.47,0,0,0-.46-.84,4,4,0,0,0-.07.91v44.39c0,2.57,1.21,2.87,3.18,2.87v.38h-7.88v-.38c2,0,3.18-.3,3.26-2.8V118.06c-.08-2.5-1.29-2.81-3.26-2.81v-.37Z"/><path class="cls-1" d="M180.18,123.13c-3-4.62-6.21-7.5-13.1-7.5-11.14,0-17,11.06-17,24.7s7,24.69,18.17,24.69c9.7,0,12.8-4.93,14.17-7.58l.3.61c-2.27,3.48-4.77,7.8-14.47,7.8-14.08,0-23.55-11.44-23.55-25.52s8.33-25.45,22.42-25.45c8.33,0,12.34,2.65,16.28,7,2,2,3,1.6,3.41,1.29l.23.31-7.73,4.76-.22-.37A3.78,3.78,0,0,0,180.18,123.13Z"/><path class="cls-1" d="M192.53,118.06c-.08-2.5-1.29-2.81-3.26-2.81v-.37h11.81v.37c-2,0-3.18.38-3.25,2.88v44.39c.07,2.57,1.29,2.87,3.25,2.87v.38H189.27v-.38c2,0,3.18-.3,3.26-2.8Z"/><path class="cls-1" d="M214,143.58l-5.15,18.94c-.68,2.57.45,2.87,2.42,2.87l-.07.38h-7.88l.08-.38c2,0,3.25-.3,4-2.8l12-44.53c.61-2.5-.53-2.81-2.5-2.81l-.07-.37h6.06c1.74,0,2.8.83,3.41,3.18l12,44.53c.75,2.5,2,2.8,3.94,2.8l.15.38H230.62l-.07-.38c2,0,3.1-.3,2.42-2.87,0,0-2.42-9-5.15-18.94Zm6.89-25.68-6.51,24.17h13.1S220.93,118,220.85,117.9Z"/><path class="cls-1" d="M41,35.18l.12-.08a.41.41,0,0,1,.16,0l1.15.05a3.29,3.29,0,0,1-.23,1.64,4.54,4.54,0,0,1-1.1,1.52,4.37,4.37,0,0,1-1.49,1,3.84,3.84,0,0,1-1.59.25,4.07,4.07,0,0,1-1.56-.44A5,5,0,0,1,35,38a4.84,4.84,0,0,1-1-1.49,3.84,3.84,0,0,1-.33-1.61,4,4,0,0,1,.35-1.6,4.48,4.48,0,0,1,1-1.43,4.74,4.74,0,0,1,.72-.57,4,4,0,0,1,.74-.38,3.43,3.43,0,0,1,.74-.21,3,3,0,0,1,.72-.06l.14,1.12a.74.74,0,0,1,0,.21.34.34,0,0,1-.13.22.42.42,0,0,1-.18.11l-.22.06-.27,0a1.65,1.65,0,0,0-.32.1,2.29,2.29,0,0,0-.37.2,3,3,0,0,0-.43.34,2.28,2.28,0,0,0-.53.76,2,2,0,0,0-.14.88,2.49,2.49,0,0,0,.27.94,3.74,3.74,0,0,0,.68,1,3.41,3.41,0,0,0,.95.72,2.53,2.53,0,0,0,1,.29A2.11,2.11,0,0,0,40,37a2.81,2.81,0,0,0,.34-.36,1.82,1.82,0,0,0,.24-.35,1.44,1.44,0,0,0,.15-.37,1.93,1.93,0,0,0,.07-.44.48.48,0,0,1,0-.17A.38.38,0,0,1,41,35.18Z"/><path class="cls-1" d="M48,30.13l2.52-1.95,1,1.26L47.41,32.6l-5.26-6.79,1.58-1.22Z"/><path class="cls-1" d="M58.1,23.16a1.72,1.72,0,0,0,.54-.49,1.47,1.47,0,0,0,.26-.6,1.82,1.82,0,0,0,0-.69,2.64,2.64,0,0,0-.32-.75l-2.66-4.34,1.7-1,2.66,4.34A4.17,4.17,0,0,1,60.78,21a3.4,3.4,0,0,1,0,1.35,3.34,3.34,0,0,1-.61,1.24,3.94,3.94,0,0,1-1.17,1,4.28,4.28,0,0,1-1.46.59,3.49,3.49,0,0,1-1.37,0,3.22,3.22,0,0,1-1.22-.59,4,4,0,0,1-1-1.1l-2.66-4.34,1.7-1,2.66,4.33a2.57,2.57,0,0,0,.52.63,1.52,1.52,0,0,0,.6.34,1.33,1.33,0,0,0,.66.05A1.8,1.8,0,0,0,58.1,23.16Z"/><path class="cls-1" d="M67.4,19.76,63.81,12l2.87-1.32a6.19,6.19,0,0,1,1.45-.49,3,3,0,0,1,1.12,0,1.77,1.77,0,0,1,.83.42,2.49,2.49,0,0,1,.56.8,1.85,1.85,0,0,1,.16.54,1.56,1.56,0,0,1,0,.57,2.17,2.17,0,0,1-.24.58,3.23,3.23,0,0,1-.46.58,2.36,2.36,0,0,1,1.42.08,1.75,1.75,0,0,1,.86.91,2.31,2.31,0,0,1,.24,1,2.35,2.35,0,0,1-.22,1,3,3,0,0,1-.69.92,4.46,4.46,0,0,1-1.17.76Zm-.27-5.35,1-.44a3.57,3.57,0,0,0,.52-.29,1.1,1.1,0,0,0,.34-.34.73.73,0,0,0,.12-.41,1.2,1.2,0,0,0-.13-.51,1.33,1.33,0,0,0-.28-.43.73.73,0,0,0-.35-.2.94.94,0,0,0-.44,0,2.41,2.41,0,0,0-.55.19l-1.06.49Zm.56,1.21.9,1.94L69.86,17a1.88,1.88,0,0,0,.55-.37,1,1,0,0,0,.24-.39,1,1,0,0,0,0-.41,1.61,1.61,0,0,0-.12-.39,1.25,1.25,0,0,0-.24-.36.6.6,0,0,0-.32-.2,1,1,0,0,0-.45,0,2.33,2.33,0,0,0-.6.2Z"/><path class="cls-1" d="M92.27,6.61a4.53,4.53,0,0,1,.1,1.75,4.18,4.18,0,0,1-.55,1.54,4.22,4.22,0,0,1-1.15,1.2,5,5,0,0,1-1.69.75l-3.24.81L83.67,4.32l3.24-.8a4.91,4.91,0,0,1,1.85-.13,4.34,4.34,0,0,1,1.58.53A4.06,4.06,0,0,1,91.54,5,4.46,4.46,0,0,1,92.27,6.61Zm-2,.49A3.76,3.76,0,0,0,89.85,6a2.62,2.62,0,0,0-.67-.73,2.22,2.22,0,0,0-.87-.35,2.61,2.61,0,0,0-1,.06L86,5.33l1.33,5.36,1.3-.32a2.81,2.81,0,0,0,.94-.43,2.21,2.21,0,0,0,.61-.72,2.61,2.61,0,0,0,.25-1A4,4,0,0,0,90.29,7.1Z"/><path class="cls-1" d="M103.27.59l.19,1.53L100,2.57l.26,2,2.67-.35.19,1.46L100.41,6l.27,2,3.49-.45.2,1.52-5.48.71L97.78,1.31Z"/><path class="cls-1" d="M123.26.23l-.06,1.53-3.53-.15-.08,2,2.7.11-.06,1.47-2.7-.11-.08,2,3.52.15-.06,1.53-5.53-.23L117.73,0Z"/><path class="cls-1" d="M134.3,3.26a.72.72,0,0,1-.21.19.37.37,0,0,1-.26,0,.54.54,0,0,1-.27-.12l-.33-.24a2.75,2.75,0,0,0-.42-.26,2.05,2.05,0,0,0-.56-.17,1.28,1.28,0,0,0-.86.12.82.82,0,0,0-.36.6.59.59,0,0,0,.1.45,1.37,1.37,0,0,0,.39.36c.17.1.36.21.57.31l.67.33a6.21,6.21,0,0,1,.65.39,2.14,2.14,0,0,1,.89,1.22,2.37,2.37,0,0,1,0,.93A3.08,3.08,0,0,1,134,8.48a2.54,2.54,0,0,1-.72.81,2.82,2.82,0,0,1-1,.46,3.62,3.62,0,0,1-1.32,0,3.75,3.75,0,0,1-.8-.2,4.4,4.4,0,0,1-.77-.34,5.29,5.29,0,0,1-.67-.46,3.29,3.29,0,0,1-.52-.54l.71-.84a.6.6,0,0,1,.21-.14.57.57,0,0,1,.26,0,.71.71,0,0,1,.34.16l.36.31a4.17,4.17,0,0,0,.49.32,2,2,0,0,0,.67.21,1.34,1.34,0,0,0,.87-.12.9.9,0,0,0,.4-.71.7.7,0,0,0-.09-.5,1.25,1.25,0,0,0-.38-.38,6.18,6.18,0,0,0-.58-.3c-.22-.09-.44-.2-.66-.31a4.34,4.34,0,0,1-.66-.38,2.05,2.05,0,0,1-.54-.52,2.09,2.09,0,0,1-.33-.74,2.85,2.85,0,0,1,0-1,2.46,2.46,0,0,1,1-1.64,2.93,2.93,0,0,1,1-.44,3.35,3.35,0,0,1,1.27,0,4.44,4.44,0,0,1,.76.17,5.11,5.11,0,0,1,.68.28,3.33,3.33,0,0,1,.57.38,2.89,2.89,0,0,1,.47.45Z"/><path class="cls-1" d="M147.59,4.43,147.2,6l-2.34-.59-1.73,6.79-1.93-.49,1.72-6.79-2.34-.6L141,2.75Z"/><path class="cls-1" d="M158.89,8.31l-.53,1.43-3.31-1.22-.7,1.88,2.54.94-.52,1.38-2.53-.94-.71,1.92,3.31,1.23-.54,1.43-5.18-1.92,3-8Zm.88-2.25L157.4,7a.53.53,0,0,1-.16,0,.38.38,0,0,1-.15,0l-.15,0-.17-.06-1.25-.46,1.6-1.11.19-.09a.41.41,0,0,1,.16,0l.18,0,.23.08Z"/><path class="cls-1" d="M170.52,13.71l-.71,1.42-2.16-1.08-3.13,6.28-1.78-.89,3.13-6.28-2.17-1.07.7-1.42Z"/><path class="cls-1" d="M173.18,25.25l-1.71-1.06,4.52-7.3,1.71,1.05Z"/><path class="cls-1" d="M184.28,30.38l.09.1a.43.43,0,0,1,0,.16l.13,1.14a3.3,3.3,0,0,1-1.65,0A4.95,4.95,0,0,1,180,29.64a3.67,3.67,0,0,1-.49-1.52,4.05,4.05,0,0,1,.17-1.61,5.29,5.29,0,0,1,.83-1.57,4.85,4.85,0,0,1,1.31-1.22,4.14,4.14,0,0,1,1.54-.58,3.93,3.93,0,0,1,1.63.1,4.43,4.43,0,0,1,1.58.79,4.08,4.08,0,0,1,.68.62,4.17,4.17,0,0,1,.49.66,3.5,3.5,0,0,1,.33.71,3.57,3.57,0,0,1,.17.7l-1.09.31a.71.71,0,0,1-.21,0,.4.4,0,0,1-.24-.1.47.47,0,0,1-.13-.15l-.09-.22-.1-.25a1.05,1.05,0,0,0-.15-.3,2.25,2.25,0,0,0-.25-.34,3.09,3.09,0,0,0-.41-.37,2.2,2.2,0,0,0-.83-.4,1.91,1.91,0,0,0-.89,0,2.42,2.42,0,0,0-.88.41,3.62,3.62,0,0,0-.83.83,3.48,3.48,0,0,0-.57,1,2.71,2.71,0,0,0-.13,1,2,2,0,0,0,.26.86,2.12,2.12,0,0,0,.59.68,4.29,4.29,0,0,0,.41.28,3.39,3.39,0,0,0,.39.18,2.46,2.46,0,0,0,.39.09,3.08,3.08,0,0,0,.43,0h.18A.45.45,0,0,1,184.28,30.38Z"/><path class="cls-1" d="M193.43,41.63l-1.12-1.07a.72.72,0,0,1-.22-.38.87.87,0,0,1,0-.39l.67-1.43-2.36-2.26-1.4.73a.76.76,0,0,1-.38.06.67.67,0,0,1-.39-.2l-1.12-1.07,8.34-3.91L197,33.12Zm-1.72-6.19,1.7,1.62,1.05-2.25.23-.51c.09-.19.19-.4.31-.61l-.6.35-.5.25Z"/><path class="cls-1" d="M31.45,88.42l-4.19,15.4c-.56,2.09.37,2.34,2,2.34l-.06.3H22.76l.06-.3c1.6,0,2.65-.25,3.27-2.28l9.79-36.22c.49-2-.43-2.28-2-2.28l-.06-.31h4.92c1.42,0,2.28.68,2.78,2.59l9.79,36.22c.61,2,1.66,2.28,3.2,2.28l.12.3H45l-.07-.3c1.61,0,2.53-.25,2-2.34,0,0-2-7.33-4.19-15.4Zm5.6-20.88-5.3,19.65H42.41S37.11,67.6,37.05,67.54Z"/><path class="cls-1" d="M97.54,65.07v.31c-1.61,0-2.59.31-2.65,2.34v36.1c.06,2.09,1,2.34,2.65,2.34v.3H87.93v-.3c1.6,0,2.58-.25,2.64-2.28V67.66a1.69,1.69,0,0,0-.06-.55,2.36,2.36,0,0,1-.24.55l-12.69,38.8a3.46,3.46,0,0,1-3.39-2.58L62.3,67.66c-.12-.25-.18-.49-.3-.68a2.62,2.62,0,0,0-.06.74v36.1c0,2.09,1,2.34,2.58,2.34v.3h-6.4v-.3c1.6,0,2.58-.25,2.65-2.28V67.66c-.07-2-1.05-2.28-2.65-2.28v-.31H68.4l.12.31c-1.6,0-2.52.31-1.84,2.34l11.15,34,11.08-34c.68-2-.24-2.34-1.84-2.34l.12-.31Z"/><path class="cls-1" d="M118.48,65.07c11.45,0,18.72,9.3,18.72,20.7s-7.27,20.76-18.72,20.76-18.17-9.3-18.17-20.76S107.08,65.07,118.48,65.07Zm0,.62c-9,0-13.8,9-13.8,20.08s4.8,20.08,13.8,20.08,14.35-9,14.35-20.08S127.53,65.69,118.48,65.69Z"/><path class="cls-1" d="M194,65.07v.31c-1.6,0-2.59.31-2.65,2.34v36.1c.06,2.09,1,2.34,2.65,2.34v.3h-9.6v-.3c1.6,0,2.58-.25,2.64-2.28V67.66a1.69,1.69,0,0,0-.06-.55,2,2,0,0,1-.25.55L174,106.46a3.46,3.46,0,0,1-3.39-2.58L158.76,67.66a5.47,5.47,0,0,0-.31-.68,2.62,2.62,0,0,0-.06.74v36.1c0,2.09,1.05,2.34,2.59,2.34v.3h-6.41v-.3c1.6,0,2.59-.25,2.65-2.28V67.66c-.06-2-1.05-2.28-2.65-2.28v-.31h10.29l.12.31c-1.6,0-2.52.31-1.85,2.34l11.15,34,11.09-34c.68-2-.25-2.34-1.85-2.34l.12-.31Z"/><path class="cls-1" d="M200.15,67.66c-.06-2-1.05-2.28-2.65-2.28v-.31h9.61v.31c-1.6,0-2.58.31-2.64,2.34v36.1c.06,2.09,1,2.34,2.64,2.34v.3H197.5v-.3c1.6,0,2.59-.25,2.65-2.28Z"/></g></g></svg>